<?xml version="1.0" encoding="utf-8"?>
<!-- Generator: Adobe Illustrator 19.2.1, SVG Export Plug-In . SVG Version: 6.00 Build 0)  -->
<svg version="1.1" id="Layer_1" xmlns="http://www.w3.org/2000/svg" xmlns:xlink="http://www.w3.org/1999/xlink" x="0px" y="0px"
	 viewBox="0 0 52 150" style="enable-background:new 0 0 52 150;" xml:space="preserve">
<style type="text/css">
	.st0{fill:#B3C471;}
	.st1{fill:#CAD681;}
	.st2{fill:#585948;}
	.st3{fill:#7D1F4D;}
	.st4{fill:#FFFFFF;}
</style>
<g id="XMLID_1_">
	<g>
		<g>
			<path class="st3" d="M46.53,71.16L50,69.41c0,3.96-0.46,7.76-1.32,11.3h-0.01c-3.05,12.63-11.09,21.12-20.72,22.19
				c-0.61,0.07-1.23,0.1-1.85,0.1c-0.03,0-0.07,0-0.1,0c-10.41-0.06-19.24-8.9-22.47-22.29c-0.46-1.88-0.81-3.84-1.03-5.85
				l5.72-2.61c3.09-1.42,6.43-2.13,9.77-2.13c3.05,0,6.11,0.6,8.98,1.78C33.28,74.5,40.44,74.23,46.53,71.16z"/>
		</g>
	</g>
	<g>
		<path class="st4" d="M48.747,52.493c-0.035-0.112-0.104-0.311-0.238-0.532C48.146,51.364,47.498,51,46.8,51H5.4
			c-0.817,0-1.552,0.497-1.856,1.255C1.263,57.935,0.2,63.386,0.2,69.41c0,1.932,0.105,3.841,0.312,5.667
			c0.226,2.058,0.587,4.114,1.074,6.101C4.854,94.731,13.526,103.803,24,104.886v38.623l-17.012,2.512
			c-0.018,0.003-0.035,0.01-0.053,0.013c-0.072,0.013-0.141,0.033-0.21,0.053c-0.059,0.017-0.119,0.032-0.175,0.055
			c-0.062,0.024-0.12,0.056-0.179,0.086c-0.058,0.03-0.116,0.058-0.17,0.092c-0.052,0.034-0.1,0.073-0.149,0.112
			c-0.052,0.041-0.105,0.08-0.153,0.126c-0.045,0.043-0.084,0.091-0.125,0.138c-0.043,0.049-0.086,0.097-0.124,0.151
			c-0.037,0.052-0.066,0.107-0.098,0.162c-0.032,0.056-0.066,0.111-0.093,0.171c-0.026,0.057-0.044,0.117-0.064,0.176
			c-0.022,0.064-0.045,0.128-0.06,0.194c-0.014,0.059-0.02,0.119-0.028,0.18c-0.01,0.072-0.02,0.143-0.022,0.216
			c0,0.018-0.005,0.036-0.005,0.054c0,0.05,0.011,0.097,0.015,0.146c0.004,0.049,0,0.097,0.007,0.146
			c0.003,0.019,0.01,0.037,0.014,0.056c0.01,0.058,0.026,0.113,0.041,0.169c0.018,0.068,0.037,0.135,0.062,0.2
			c0.02,0.051,0.043,0.099,0.066,0.148c0.031,0.065,0.065,0.128,0.103,0.189c0.027,0.044,0.056,0.085,0.086,0.127
			c0.043,0.059,0.089,0.114,0.138,0.168c0.035,0.038,0.07,0.074,0.107,0.109c0.052,0.049,0.108,0.093,0.165,0.136
			c0.042,0.031,0.083,0.063,0.127,0.091c0.061,0.038,0.124,0.071,0.189,0.102c0.047,0.023,0.091,0.048,0.14,0.067
			c0.075,0.03,0.153,0.051,0.232,0.072c0.042,0.011,0.082,0.026,0.125,0.035C7.021,149.986,7.148,150,7.277,150c0,0,0.001,0,0.001,0
			c0,0,0.001,0,0.001,0H45c0.023,0,0.044-0.006,0.066-0.007c0.06-0.002,0.117-0.01,0.176-0.018c0.076-0.009,0.152-0.018,0.225-0.036
			c0.05-0.012,0.098-0.03,0.146-0.045c0.075-0.024,0.15-0.049,0.221-0.081c0.048-0.022,0.091-0.049,0.137-0.074
			c0.065-0.036,0.13-0.072,0.19-0.115c0.048-0.034,0.091-0.074,0.136-0.112c0.051-0.044,0.102-0.086,0.149-0.135
			c0.045-0.047,0.083-0.099,0.124-0.15c0.039-0.049,0.078-0.097,0.112-0.15c0.035-0.054,0.063-0.113,0.093-0.171
			c0.03-0.059,0.061-0.116,0.085-0.178c0.022-0.057,0.037-0.116,0.054-0.175c0.02-0.07,0.04-0.139,0.053-0.211
			c0.003-0.018,0.011-0.035,0.013-0.054c0.007-0.047,0.003-0.093,0.006-0.14C46.989,148.098,47,148.05,47,148
			c0-0.02-0.005-0.038-0.006-0.058c-0.002-0.072-0.012-0.142-0.021-0.212c-0.008-0.062-0.015-0.123-0.029-0.183
			c-0.015-0.066-0.038-0.128-0.059-0.191c-0.021-0.06-0.04-0.121-0.066-0.179c-0.026-0.058-0.059-0.113-0.091-0.168
			c-0.032-0.056-0.063-0.112-0.1-0.165c-0.037-0.052-0.08-0.1-0.122-0.148c-0.041-0.048-0.081-0.096-0.127-0.14
			c-0.047-0.045-0.1-0.085-0.152-0.125c-0.049-0.039-0.097-0.078-0.15-0.112c-0.054-0.035-0.113-0.063-0.171-0.093
			c-0.058-0.03-0.116-0.061-0.178-0.085c-0.058-0.023-0.12-0.039-0.181-0.056c-0.067-0.019-0.134-0.039-0.203-0.051
			c-0.02-0.003-0.037-0.011-0.057-0.014L28,143.509v-38.608c0.056-0.006,0.116-0.008,0.171-0.014
			c10.545-1.172,19.112-10.174,22.396-23.512c0.022-0.063,0.041-0.128,0.057-0.194C51.537,77.422,52,73.461,52,69.41
			C52,63.373,50.996,58.151,48.747,52.493z M6.772,55h38.654c1.634,4.393,2.431,8.553,2.55,13.191l-2.346,1.183
			c-5.585,2.815-12.108,3.062-17.899,0.676c-3.116-1.281-6.393-1.93-9.74-1.93c-3.646,0-7.313,0.8-10.6,2.311l-3.123,1.425
			C4.226,71.048,4.2,70.233,4.2,69.41C4.2,64.358,5.021,59.744,6.772,55z M46.726,80.24c-2.841,11.765-10.12,19.686-19.001,20.673
			C27.217,100.971,26.671,101,26.1,101h-0.089c-9.447-0.054-17.508-8.202-20.539-20.766c-0.334-1.365-0.581-2.766-0.782-4.175
			l4.365-1.992c2.772-1.274,5.862-1.947,8.935-1.947c2.823,0,5.589,0.548,8.218,1.629c6.864,2.829,14.6,2.536,21.222-0.803
			l0.444-0.224c-0.173,2.508-0.529,4.964-1.092,7.328C46.76,80.112,46.742,80.176,46.726,80.24z"/>
		<path class="st4" d="M26.45,93c-0.333,0-0.658-0.017-0.969-0.047c-4.998-0.558-9.298-4.971-11.223-11.518
			c-0.312-1.06-1.427-1.667-2.483-1.354c-1.06,0.312-1.667,1.424-1.355,2.483c2.388,8.12,7.989,13.624,14.64,14.366
			C25.528,96.978,25.983,97,26.45,97c1.104,0,2-0.896,2-2S27.555,93,26.45,93z"/>
	</g>
</g>
</svg>
