<?xml version="1.0" encoding="utf-8"?>
<!-- Generator: Adobe Illustrator 19.2.1, SVG Export Plug-In . SVG Version: 6.00 Build 0)  -->
<svg version="1.1" id="Layer_1" xmlns="http://www.w3.org/2000/svg" xmlns:xlink="http://www.w3.org/1999/xlink" x="0px" y="0px"
	 viewBox="0 0 76.067 150" style="enable-background:new 0 0 76.067 150;" xml:space="preserve">
<style type="text/css">
	.st0{display:none;fill:none;stroke:#FFFFFF;stroke-width:2;stroke-linecap:round;stroke-miterlimit:10;}
	.st1{fill:#5CDBA9;}
	.st2{fill:#5CDBFF;}
	.st3{fill:#42C18E;}
	.st4{fill:#4DC0FF;}
	.st5{fill:#459571;}
	.st6{fill:#457BA4;}
	.st7{fill:#1A9DED;}
	.st8{fill:#1A71ED;}
	.st9{fill:#58595B;}
	.st10{fill:#F9D35B;}
	.st11{fill:#414042;}
	.st12{opacity:0.4;fill:#414042;}
	.st13{fill:#EDDABB;}
	.st14{fill:#DECDB1;}
	.st15{fill:#F8E7D1;}
	.st16{fill:#C4DFED;}
	.st17{fill:#DEF8FF;}
	.st18{fill:#D1F1FF;}
	.st19{fill:#585963;}
	.st20{fill:#FF868A;}
	.st21{fill:#FF9296;}
	.st22{fill:#EC8287;}
</style>
<g>
	<g>
		<path class="st13" d="M66.347,74.02L61.067,148h-33c1.66,0,3-1.34,3-3s-1.34-3-3-3s-3,1.34-3,3s1.34,3,3,3h-12l-5.28-73.98
			l0.28-0.02h22h10h23L66.347,74.02z M57.067,123c0-1.66-1.34-3-3-3s-3,1.34-3,3s1.34,3,3,3S57.067,124.66,57.067,123z M52.067,139
			c0-1.66-1.34-3-3-3s-3,1.34-3,3s1.34,3,3,3S52.067,140.66,52.067,139z M48.067,115c0-1.66-1.34-3-3-3s-3,1.34-3,3s1.34,3,3,3
			S48.067,116.66,48.067,115z M38.067,133c0-1.66-1.34-3-3-3s-3,1.34-3,3s1.34,3,3,3S38.067,134.66,38.067,133z M28.067,123
			c0-1.66-1.34-3-3-3s-3,1.34-3,3s1.34,3,3,3S28.067,124.66,28.067,123z"/>
		<polygon class="st14" points="51.348,74 66.068,74 66.348,74.02 61.068,148 52.067,148 57.347,74.02 		"/>
		<polygon class="st15" points="25.787,74 11.067,74 10.787,74.02 16.067,148 25.067,148 19.787,74.02 		"/>
		<rect x="68.067" y="57" class="st16" width="6" height="7"/>
		<rect x="2.067" y="57" class="st17" width="6" height="7"/>
		<polygon class="st16" points="68.067,57 68.067,64 67.067,64 62.067,64 62.067,57 		"/>
		<polygon class="st18" points="67.067,64 66.347,74.02 66.067,74 43.067,74 43.067,64 44.067,64 50.067,64 56.067,64 62.067,64 		
			"/>
		<rect x="56.067" y="57" class="st16" width="6" height="7"/>
		<circle class="st19" cx="54.067" cy="123" r="3"/>
		<rect x="50.067" y="57" class="st18" width="6" height="7"/>
		<circle class="st19" cx="49.067" cy="139" r="3"/>
		<rect x="44.067" y="57" class="st18" width="6" height="7"/>
		<circle class="st19" cx="45.067" cy="115" r="3"/>
		<polygon class="st18" points="44.067,57 44.067,64 43.067,64 38.067,64 38.067,57 43.067,57 		"/>
		<polygon class="st20" points="43.067,64 43.067,74 33.067,74 33.067,64 38.067,64 		"/>
		<polygon class="st20" points="43.067,2 43.067,57 38.067,57 33.067,57 33.067,2 		"/>
		<polygon class="st18" points="38.067,57 38.067,64 33.067,64 32.067,64 32.067,57 33.067,57 		"/>
		<circle class="st19" cx="35.067" cy="133" r="3"/>
		<polygon class="st18" points="33.067,64 33.067,74 11.067,74 10.787,74.02 10.067,64 14.067,64 20.067,64 26.067,64 32.067,64 		
			"/>
		<rect x="26.067" y="57" class="st18" width="6" height="7"/>
		<circle class="st19" cx="28.067" cy="145" r="3"/>
		<circle class="st19" cx="25.067" cy="123" r="3"/>
		<rect x="20.067" y="57" class="st18" width="6" height="7"/>
		<rect x="14.067" y="57" class="st17" width="6" height="7"/>
		<rect x="33.067" y="64" class="st21" width="4" height="10"/>
		<rect x="39.067" y="64" class="st22" width="4" height="10"/>
		<polygon class="st17" points="14.067,57 14.067,64 10.067,64 8.067,64 8.067,57 		"/>
		<polygon class="st18" points="43.067,64 43.067,74 33.067,74 33.067,64 38.067,64 		"/>
		<polygon class="st17" points="19.067,64 14.067,64 10.067,64 10.787,74.02 11.067,74 19.785,74 		"/>
		<polygon class="st16" points="58.067,64 63.067,64 67.067,64 66.347,74.02 66.067,74 57.348,74 		"/>
		<rect x="33.067" y="2" class="st21" width="4" height="55"/>
		<rect x="39.067" y="2" class="st22" width="4" height="55"/>
	</g>
	<g>
		<path class="st19" d="M25.067,118c-2.757,0-5,2.243-5,5s2.243,5,5,5s5-2.243,5-5S27.823,118,25.067,118z M25.067,124
			c-0.552,0-1-0.448-1-1s0.448-1,1-1s1,0.448,1,1S25.618,124,25.067,124z"/>
		<path class="st19" d="M35.067,128c-2.757,0-5,2.243-5,5s2.243,5,5,5s5-2.243,5-5S37.823,128,35.067,128z M35.067,134
			c-0.552,0-1-0.448-1-1s0.448-1,1-1s1,0.448,1,1S35.618,134,35.067,134z"/>
		<path class="st19" d="M50.067,115c0-2.757-2.243-5-5-5s-5,2.243-5,5s2.243,5,5,5S50.067,117.757,50.067,115z M44.067,115
			c0-0.552,0.448-1,1-1s1,0.448,1,1s-0.448,1-1,1S44.067,115.552,44.067,115z"/>
		<path class="st19" d="M54.067,118c-2.757,0-5,2.243-5,5s2.243,5,5,5s5-2.243,5-5S56.823,118,54.067,118z M54.067,124
			c-0.552,0-1-0.448-1-1s0.448-1,1-1s1,0.448,1,1S54.618,124,54.067,124z"/>
		<path class="st19" d="M49.067,134c-2.757,0-5,2.243-5,5s2.243,5,5,5s5-2.243,5-5S51.823,134,49.067,134z M49.067,140
			c-0.552,0-1-0.448-1-1s0.448-1,1-1s1,0.448,1,1S49.618,140,49.067,140z"/>
		<path class="st19" d="M27.067,89.5c1.104,0,2-0.896,2-2c0-0.827,0.673-1.5,1.5-1.5s1.5,0.673,1.5,1.5c0,1.104,0.896,2,2,2
			s2-0.896,2-2c0-3.032-2.468-5.5-5.5-5.5s-5.5,2.468-5.5,5.5C25.067,88.604,25.962,89.5,27.067,89.5z"/>
		<path class="st19" d="M42.067,89.5c1.104,0,2-0.896,2-2c0-0.827,0.673-1.5,1.5-1.5s1.5,0.673,1.5,1.5c0,1.104,0.896,2,2,2
			s2-0.896,2-2c0-3.032-2.468-5.5-5.5-5.5s-5.5,2.468-5.5,5.5C40.067,88.604,40.962,89.5,42.067,89.5z"/>
		<path class="st19" d="M30.608,95.745c-0.704-0.853-1.965-0.971-2.815-0.267c-0.852,0.704-0.971,1.965-0.267,2.815
			c2.51,3.035,5.717,4.706,9.031,4.706c1.049,0,2.1-0.167,3.123-0.497c1.051-0.338,1.629-1.465,1.29-2.517
			c-0.338-1.051-1.461-1.633-2.517-1.29C37.827,98.897,37.189,99,36.557,99C33.865,99,31.836,97.229,30.608,95.745z"/>
		<path class="st19" d="M76.067,55h-31V0h-14v55h-31v11h8.138l6,84h48.725l6-84h7.138V55z M64.067,62v-3h2v3H64.067z M10.067,62v-3
			h2v3H10.067z M16.067,59h2v3h-2V59z M22.067,59h2v3h-2V59z M28.067,59h2v3h-2V59z M36.067,59v3h-2v-3H36.067z M42.067,59v3h-2v-3
			H42.067z M35.067,66h6v6h-6V66z M46.067,59h2v3h-2V59z M52.067,59h2v3h-2V59z M58.067,59h2v3h-2V59z M35.067,4h6v51h-6V4z
			 M4.067,59h2v3h-2V59z M31.067,66v6H12.643l-0.429-6H31.067z M27.067,145c0-0.552,0.448-1,1-1s1,0.448,1,1s-0.448,1-1,1
			S27.067,145.552,27.067,145z M59.204,146H32.965c0.066-0.323,0.101-0.658,0.101-1c0-2.757-2.243-5-5-5s-5,2.243-5,5
			c0,0.342,0.035,0.677,0.101,1h-5.239l-5-70h18.138h2h10h2h19.138L59.204,146z M64.49,72H45.067v-6h19.852L64.49,72z M72.067,62h-2
			v-3h2V62z"/>
	</g>
</g>
</svg>
